<?xml version="1.0" encoding="utf-8"?><svg viewBox="0 0 137 48" xmlns="http://www.w3.org/2000/svg" xmlns:xlink="http://www.w3.org/1999/xlink"><style>:root>svg{display:none}:root>svg:target{display:block}</style><svg fill="none" viewBox="0 0 12 6" id="arrow" xmlns="http://www.w3.org/2000/svg"><path d="M11.248 3.247a.35.35 0 0 0 0-.494L9.02.525a.35.35 0 1 0-.495.495L10.505 3l-1.98 1.98a.35.35 0 1 0 .495.495l2.228-2.228ZM1 2.65a.35.35 0 0 0 0 .7v-.7Zm10 0H1v.7h10v-.7Z" fill="#00D1D2"/></svg><svg fill="none" viewBox="0 0 47 47" id="ico-tg" xmlns="http://www.w3.org/2000/svg"><path d="M46.06 2.846a2.69 2.69 0 0 0-2.754-.47L1.716 18.803c-.544.214-1.004.6-1.312 1.1a2.73 2.73 0 0 0 .287 3.245 2.7 2.7 0 0 0 1.483.85l11.289 2.27v14.01c-.006.539.15 1.067.448 1.515.298.448.724.796 1.221.997a2.654 2.654 0 0 0 2.947-.59l6.445-6.479 9.508 8.413a2.673 2.673 0 0 0 2.617.546 2.68 2.68 0 0 0 1.165-.748 2.7 2.7 0 0 0 .64-1.232l8.477-37.187a2.726 2.726 0 0 0-.871-2.667ZM1.806 21.413a.88.88 0 0 1 .569-.924L40.499 5.431 14.155 24.56 2.527 22.222a.87.87 0 0 1-.72-.81Zm14.998 19.506a.9.9 0 0 1-1.538-.641V27.531l7.902 6.99-6.363 6.398Zm28.37-35.81-8.477 37.186a.908.908 0 0 1-.602.66.897.897 0 0 1-.872-.182L15.808 25.596l29.22-21.217a.866.866 0 0 1 .146.73Z" fill="#34303D"/></svg><svg fill="none" viewBox="0 0 42 48" id="ico-viber" xmlns="http://www.w3.org/2000/svg"><g clip-path="url(#ca)" fill="#34303D"><path d="M25.376.532h-8.752C7.458.532 0 8.159 0 17.534v8.064c0 6.981 4.194 13.255 10.5 15.811v5.228c0 .354.204.675.52.818a.858.858 0 0 0 .943-.155l5.073-4.7h8.34C34.542 42.6 42 34.972 42 25.598v-8.064C42 8.159 34.542.532 25.376.532ZM40.25 25.598c0 8.388-6.672 15.212-14.874 15.212h-8.678a.863.863 0 0 0-.587.231L12.25 44.62v-3.83a.893.893 0 0 0-.584-.844C5.736 37.8 1.75 32.035 1.75 25.598v-8.064c0-8.388 6.672-15.212 14.874-15.212h8.752c8.202 0 14.874 6.824 14.874 15.212v8.064Z"/><path d="m32.564 27.825-5.378-3.573a2.574 2.574 0 0 0-1.974-.379 2.604 2.604 0 0 0-1.658 1.166l-.253.398c-2.327-.787-4.894-1.792-6.43-6.341l.636-.566c1.092-.971 1.207-2.67.257-3.789l-4.207-4.95a.863.863 0 0 0-1.235-.09l-2.641 2.35c-2.317 2.06-1.234 5.108-.878 6.11a.908.908 0 0 0 .057.129c.092.168 2.286 4.173 5.828 7.864 3.557 3.706 9.98 7.129 10.176 7.228a4.28 4.28 0 0 0 2.375.72 4.353 4.353 0 0 0 3.676-2.036l1.906-3.002a.908.908 0 0 0-.257-1.239Zm-3.116 3.266c-.79 1.242-2.418 1.595-3.705.746-.064-.034-6.443-3.433-9.806-6.937-3.143-3.275-5.23-6.913-5.514-7.42-.694-1.988-.571-3.21.406-4.078l1.981-1.761 3.633 4.275a.9.9 0 0 1-.084 1.263l-1.074.954a.908.908 0 0 0-.262.94c1.83 6.084 5.39 7.278 7.989 8.152l.378.127a.86.86 0 0 0 1.01-.36l.622-.978a.866.866 0 0 1 .55-.388.854.854 0 0 1 .66.127l4.645 3.086-1.43 2.252ZM22.997 15.074a.87.87 0 0 0-1.081.616.898.898 0 0 0 .602 1.106c1.303.38 2.342 1.444 2.71 2.779a.878.878 0 0 0 1.08.618.898.898 0 0 0 .604-1.104c-.531-1.929-2.032-3.467-3.915-4.015Z"/><path d="M29.656 20.419c.079 0 .159-.01.238-.033a.898.898 0 0 0 .605-1.105c-1.033-3.744-3.946-6.73-7.603-7.795a.872.872 0 0 0-1.081.616.898.898 0 0 0 .602 1.106c3.077.895 5.529 3.409 6.397 6.559.11.394.46.652.842.652Z"/><path d="M22.519 7.318a.87.87 0 0 0-1.081.617.898.898 0 0 0 .602 1.105c5.214 1.518 9.367 5.776 10.839 11.113a.878.878 0 0 0 1.08.62.899.899 0 0 0 .604-1.106c-1.635-5.93-6.25-10.662-12.044-12.349Z"/></g><defs><clipPath id="ca"><path fill="#fff" transform="translate(0 .532)" d="M0 0h42v47H0z"/></clipPath></defs></svg><svg fill="none" viewBox="0 0 38 38" id="ico_18_black" xmlns="http://www.w3.org/2000/svg"><g clip-path="url(#da)" fill="#34303D"><path d="m5.124 26.69-.769.17.388.68.535-.581c.132-.148.287-.296.42-.416v-.008c-.182.048-.389.114-.574.156ZM35.164 22.873l.162-.766-.785.079c-.194.02-.408.023-.593.032v.01c.165.08.363.168.53.258l.686.387ZM13.442 33.206a1.395 1.395 0 0 0-.31-.09l-.371.963c.077.05.16.09.246.12.388.148.698.05.828-.283.13-.334-.033-.572-.393-.71ZM1.994 18.08l1.91.19.044-.434-1.557-.154.068-.677 1.556.154.043-.434-1.912-.188-.152 1.544ZM3.575 15.702a.889.889 0 0 0-.065-.652.612.612 0 0 0-.407-.27.565.565 0 0 0-.479.107.911.911 0 0 0-.274.539 3.556 3.556 0 0 0-.086.582l1.85.402.092-.42-.67-.148a.888.888 0 0 0 .04-.14Zm-.326-.069a.768.768 0 0 1-.041.14l-.554-.12c0-.06.006-.12.02-.18.046-.21.175-.308.349-.27.173.036.275.205.226.429v.001ZM4.108 12.872c-.5-.173-1.024-.013-1.216.538-.193.551.102 1.024.646 1.212.515.179 1.037 0 1.217-.535.181-.535-.053-1.009-.647-1.215Zm.329 1.088c-.095.274-.403.354-.759.232-.355-.121-.56-.375-.465-.652.095-.277.433-.342.759-.23.352.122.561.372.465.65ZM4.495 12.542c.112.105.211.224.296.352l-.06.149.74.346.148-.296-.427-.236.495-1.006.445.194.148-.296-.722-.38-.093.165-1.416-.696-.556 1.128.46.226c.196.091.378.209.542.35Zm-.319-1.157 1.086.543-.281.572a1.59 1.59 0 0 0-.233-.275 2.242 2.242 0 0 0-.523-.351l-.23-.113.181-.376ZM6.15 11.076l-.335-.385.296-.459.492.148.258-.39-1.926-.56-.314.476 1.28 1.545.25-.375Zm-.572-.616-.277-.318c-.076-.088-.183-.191-.261-.279.111.039.247.09.361.123l.406.125-.23.35ZM6.552 9.41c.108.174.207.353.297.538l.296-.33a2.877 2.877 0 0 0-.228-.383c-.111-.182-.184-.363-.03-.539l.048-.053.603.531.274-.31-.602-.532.046-.052c.156-.177.344-.128.54-.039.131.069.268.128.408.178L8.5 8.09c-.195-.062-.383-.164-.576-.246-.24-.102-.466-.135-.659.04l-.209-1.058-.335.378.282.889-.025.03-.593-.528-.276.313.593.527-.027.03-.912-.17-.34.374 1.076.077c-.138.228-.08.443.053.664ZM8.878 7.797l-.208-.461.418-.357.433.279.355-.304L8.17 5.877l-.434.37.8 1.842.342-.292Zm-.556-1.135c-.049-.105-.121-.234-.173-.34.095.069.213.149.314.22l.356.228-.319.27-.178-.378ZM10.86 6.284l-.418-.687.61-.372.418.687.37-.225-.998-1.64-.37.225.383.63-.61.372-.384-.63-.372.227.999 1.64.372-.227ZM13.245 5.028l-.15-.323-.716.332-.191-.413.64-.298-.148-.32-.64.298-.17-.362.68-.315-.149-.323-1.076.499.81 1.74 1.11-.515ZM14.352 4.67c.161-.05.31-.132.438-.242l-.172-.296a1.07 1.07 0 0 1-.322.177.573.573 0 0 1-.785-.394.575.575 0 0 1 .373-.798.94.94 0 0 1 .368-.052l-.028-.354a1.122 1.122 0 0 0-.474.073c-.55.188-.874.684-.661 1.305.172.51.635.792 1.263.58ZM15.76 4.287c.548-.12.84-.573.706-1.185-.113-.518-.521-.88-1.098-.755-.554.121-.82.619-.697 1.185.115.527.533.877 1.088.755Zm-.33-1.604c.297-.064.518.19.593.527.079.365-.027.673-.312.74-.286.07-.513-.16-.593-.526-.08-.368.027-.68.313-.741ZM17.373 4.012c.38-.036.606-.12.741-.243a.514.514 0 0 0 .16-.424.48.48 0 0 0-.424-.435.432.432 0 0 0 .193-.657.415.415 0 0 0-.188-.139 1.046 1.046 0 0 0-.573-.055 3.609 3.609 0 0 0-.555.092l.177 1.877c.157.006.314 0 .47-.016Zm.445-.642c.02.199-.148.297-.342.31-.056.007-.112.01-.168.01l-.052-.539.149-.013c.21-.021.39.04.408.232h.005Zm-.445-1.001c.196-.018.314.047.328.192.013.146-.1.246-.328.269l-.14.013-.042-.445c.057-.014.115-.023.174-.03h.008ZM19.8 3.563l-.788-.014.008-.454.707.01.004-.353-.705-.011.006-.399.748.012.006-.356L18.6 1.98l-.03 1.92 1.225.02.005-.356ZM20.547 3.295c.05.011.099.02.148.025a.89.89 0 0 0 .643-.133.614.614 0 0 0 .22-.433.564.564 0 0 0-.148-.465.929.929 0 0 0-.566-.216 3.408 3.408 0 0 0-.593-.026l-.207 1.882.428.047.075-.681Zm.1-.898a.741.741 0 0 1 .18 0c.215.024.325.148.305.317-.019.169-.176.296-.405.271a.63.63 0 0 1-.149-.028l.069-.56ZM24.258 2.778l-.411-.104-.383 1.515-.462-.117.384-1.515-.412-.104-.382 1.516-.46-.116.384-1.515-.415-.105-.47 1.862 2.156.543.471-1.86ZM25.214 5.226l.132-.33-.732-.293.17-.422.656.262.13-.33-.655-.261.148-.37.695.28.133-.331-1.099-.442-.714 1.783 1.136.454ZM25.825 5.53l.38-.708.63.34-.38.706.38.206.91-1.69-.38-.206-.35.65-.63-.34.35-.648-.384-.208-.91 1.69.384.208ZM27.463 6.496l.465-.655.582.415-.465.655.351.25L29.51 5.6l-.353-.252-.426.6-.582-.415.428-.6-.356-.253-1.114 1.563.356.253ZM29.221 7.937c.412.383.951.362 1.38-.1.36-.39.423-.932-.01-1.334-.432-.401-.977-.32-1.368.103-.392.422-.42.945-.002 1.331Zm.344-1.025c.253-.274.569-.361.784-.163.214.199.139.534-.095.787s-.566.363-.781.164c-.215-.198-.163-.512.092-.788ZM30.173 8.345l-.233.267a.784.784 0 0 0 .317.23c.319.112.65-.087 1.027-.405l.348-.297.282.332-1.194 1.01.278.331 1.467-1.24-.834-.984-.642.543c-.22.188-.426.324-.592.314a.378.378 0 0 1-.224-.101ZM31.877 11.096l.294-.199-.441-.653.376-.256.397.585.292-.197-.395-.585.33-.224.42.62.294-.2-.664-.98-1.59 1.076.687 1.013ZM33.549 10.902l-1.367.739.207.382 1.367-.739.25.46.32-.171-.701-1.298-.32.173.244.454ZM32.878 13.048l.745-.299.267.664-.745.3.16.4 1.782-.715-.162-.401-.684.275-.267-.664.684-.274-.161-.404-1.782.714.163.404ZM33.532 14.899l.768.203c.243.066.49.115.74.148v.009c-.266.043-.53.1-.79.173l-.549.148.1.385 1.858-.483-.112-.43-.834-.208a8.648 8.648 0 0 0-.74-.159v-.011c.251-.048.547-.119.845-.198l.551-.148-.1-.386-1.86.477.123.48ZM33.92 16.619l.728-.048c.239-.013.533-.038.793-.056a8.612 8.612 0 0 0-.73.258l-.71.293.038.336.772.148c.231.048.513.097.763.128v.009c-.277.03-.554.07-.782.105l-.728.113.05.42 1.896-.321-.066-.563-.656-.132c-.22-.039-.478-.074-.706-.104v-.007a6.81 6.81 0 0 0 .663-.24l.615-.26-.065-.573-1.926.095.05.399ZM20.456 18.032c1.46 0 2.4-.889 2.4-2.327 0-1.415-.94-2.306-2.378-2.306-1.505 0-2.465.89-2.465 2.306 0 1.39.982 2.327 2.443 2.327Z"/><path d="M19 5.954a13.047 13.047 0 1 0 0 26.094 13.047 13.047 0 0 0 0-26.094Zm-4.824 21.53h-2.667v-11.05H7.72v-1.916c1.63 0 4.014-.32 4.445-3.111h2.006l.006 16.076Zm6.238.272c-3.185 0-5.343-1.961-5.343-4.889 0-1.985 1.025-3.423 2.79-4-1.373-.5-2.18-1.733-2.18-3.33 0-2.51 1.985-4.244 4.82-4.244 2.748 0 4.667 1.735 4.667 4.176 0 1.597-.763 2.784-2.159 3.398 1.766.64 2.791 1.735 2.791 3.852 0 3.024-2.16 5.031-5.386 5.031v.006Zm11.008-9.314v.76h-2.666v2.667h-.762v-2.667h-2.666v-.76h2.666V15.78h.762v2.667l2.666-.005Z"/><path d="M20.414 19.901c-1.68 0-2.835 1.143-2.835 2.83 0 1.825 1.133 2.963 2.922 2.963 1.744 0 2.791-1.073 2.791-2.898 0-1.776-1.134-2.895-2.878-2.895Z"/><path d="M19 0A19.02 19.02 0 0 0 0 19c0 10.476 8.521 19.002 19 19.002a19.023 19.023 0 0 0 19.002-19.003C38.002 8.521 29.476 0 18.998 0Zm0 .517A18.505 18.505 0 0 1 37.48 18.999h-4.724a13.758 13.758 0 0 1-27.516 0H.521A18.504 18.504 0 0 1 19 .521V.517ZM1.332 22.202a1.778 1.778 0 0 1 .043-.889l.445.05a1.66 1.66 0 0 0-.05.732c.075.392.304.578.593.525.384-.074.408-.474.346-.805l-.045-.235.409-.077.044.235c.067.347.297.58.572.528.245-.048.354-.267.297-.57a1.511 1.511 0 0 0-.307-.61l.367-.207c.21.232.349.519.402.827.114.592-.119 1.028-.568 1.112a.751.751 0 0 1-.841-.47c.031.404-.175.774-.593.853-.65.125-1.007-.443-1.114-.999Zm2.772 6.815-.296-.519.615-.67-.48-.84-.89.2-.284-.5 3.136-.664.353.618-2.154 2.375Zm4.184 4.37-.426-.362 1.685-1.976-.938-.795-1.684 1.97-.424-.361 1.98-2.32 1.787 1.523-1.98 2.32Zm6.073.705a.92.92 0 0 1-.494.551c-.332.12-.698.104-1.018-.043a1.573 1.573 0 0 1-.248-.114l-.414 1.074-.516-.2 1.086-2.815c.28.06.553.142.818.248.379.148.628.335.75.557a.862.862 0 0 1 .036.745v-.003Zm4.772.236-1.218-.063-.04.787 1.15.06-.024.451-1.15-.058-.045.896 1.286.066-.024.456-1.841-.093.148-3.05 1.777.09-.019.458Zm6.752 1.257-3.007.975-.94-2.905.516-.167.8 2.47.818-.266-.8-2.47.522-.169.8 2.47.814-.262-.8-2.47.522-.169.804 2.483.28-.077.257.871c-.135.061-.271.12-.41.177l-.176-.49Zm3.692-2.123-1.918-2.37 1.382-1.115.287.357-.95.764.497.613.889-.723.284.353-.889.723.563.7 1.002-.81.287.356-1.434 1.152Zm4.935-5.506-1.14-.716-.687 1.094 1.14.715-.297.473-2.585-1.63.296-.47 1.037.65.688-1.094-1.037-.65.296-.471 2.585 1.63-.296.469Zm2.155-5.945-.904.09-.2.948.792.445-.12.563-2.784-1.591.148-.697 3.193-.336-.125.578Z"/></g><defs><clipPath id="da"><path fill="#fff" d="M0 0h38v38H0z"/></clipPath></defs></svg><svg fill="none" viewBox="0 0 137 45" id="iqos-header" xmlns="http://www.w3.org/2000/svg"><path fill-rule="evenodd" clip-rule="evenodd" d="M22.41.997c4.511 0 8.67 2.476 10.88 6.474l9.82 17.512c4.834 8.624-1.212 19.408-10.88 19.408H12.59c-9.68 0-15.726-10.784-10.885-19.408l9.827-17.512C13.74 3.473 17.9.997 22.41.997ZM6.77 32.302c2.66 6.36 8.836 10.457 15.634 10.37v.013a16.51 16.51 0 0 0 11.745-5.033 17.071 17.071 0 0 0 4.8-12.005c.005-6.912-4.098-13.142-10.386-15.77-6.288-2.629-13.514-1.134-18.293 3.782-4.778 4.917-6.161 12.282-3.5 18.643Z" fill="#00D1D2"/><path d="M136.793 27.773c0-2.146-.599-3.507-1.904-4.285-1.305-.779-3.109-.826-4.9-.826h-7.277c-2.664 0-3.496-.562-3.496-2.322v-.068c0-2.139 1.059-2.444 4.967-2.444h6.212c1.444.041 2.057.061 2.996 1.01l.479.5c.215.255.529.401.859.401.33 0 .644-.146.859-.401a1.13 1.13 0 0 0 .28-1.354v-.034c-.806-1.665-2.664-2.579-5.42-2.66h-5.739c-3.169 0-5.326.393-6.505 1.178-.999.643-1.431 1.55-1.431 3.019v1.144c0 1.658.359 2.769 1.165 3.48.805.71 2.11 1.076 3.995 1.076h8.508c3.329 0 3.902.677 3.909 2.369 0 2.376-1.006 2.6-5.613 2.6h-6.092c-1.558-.041-2.21-.062-3.196-1.05l-.499-.508a1.218 1.218 0 0 0-.866-.413 1.244 1.244 0 0 0-.852.393 1.145 1.145 0 0 0-.273 1.354c.832 1.706 2.77 2.633 5.613 2.708h6.771c1.524 0 3.409 0 4.9-.616 1.718-.718 2.55-2.085 2.55-4.224v-.041.014Z" fill="#34303D"/><path fill-rule="evenodd" clip-rule="evenodd" d="M99.615 32.674c-1.937 0-4.394-.129-6.225-1.171-1.87-1.063-2.783-2.945-2.783-5.652v-3.778c0-2.741.966-4.616 2.783-5.652 1.818-1.036 4.288-1.171 6.225-1.171h3.995c1.944 0 4.348.101 6.232 1.171 1.884 1.07 2.789 2.945 2.789 5.652v3.778c0 2.734-.958 4.61-2.789 5.652-1.831 1.042-4.288 1.171-6.232 1.171h-3.995ZM94.69 18.743c-1.08.778-1.605 2.092-1.605 4.014h-.007v2.45c0 1.936.526 3.25 1.598 4.021.899.65 2.157.935 4.088.935h5.713c1.924 0 3.189-.298 4.074-.934 1.079-.786 1.605-2.099 1.605-4.021v-2.45c0-1.93-.526-3.243-1.605-4.015-.885-.657-2.144-.941-4.074-.941h-5.7c-1.937 0-3.202.298-4.087.94Z" fill="#34303D"/><path d="M58.47 32.667a1.263 1.263 0 0 1-1.212-1.286V16.488c0-.452.237-.87.622-1.096.386-.226.86-.226 1.245 0 .386.226.623.644.623 1.096v14.893c.004.338-.126.665-.36.906a1.242 1.242 0 0 1-.885.38M88.703 33.743l-3.056-3.14a1.426 1.426 0 0 0-1.132-.448h-11.89c-1.938 0-3.19-.284-4.089-.94-1.078-.772-1.604-2.085-1.604-4.015v-7.128a.266.266 0 0 1 .073-.19.257.257 0 0 1 .186-.08h11.112c1.931 0 3.19.29 4.075.94 1.079.772 1.605 2.085 1.605 4.015v3.452c-.002.284.107.556.303.758.196.202.463.317.742.318h.406c.279-.001.546-.116.742-.318.196-.201.305-.474.303-.758v-4.143c0-2.707-.912-4.59-2.796-5.652-1.884-1.063-4.288-1.198-6.232-1.198H65.467a1.043 1.043 0 0 0-.742.318 1.079 1.079 0 0 0-.303.758v9.551c0 2.708.912 4.583 2.783 5.653 1.87 1.07 4.287 1.17 6.225 1.17h10.233c.277.001.543.113.739.312l2.497 2.58a1.03 1.03 0 0 0 1.471 0l.286-.298a1.096 1.096 0 0 0 0-1.517" fill="#34303D"/></svg></svg>